<svg width="1143" height="458" viewBox="0 0 1143 458" fill="none" xmlns="http://www.w3.org/2000/svg">
<rect width="1143" height="458" fill="#05CE91"/>
<g clip-path="url(#clip0_476_46)">
<rect width="1143" height="458" fill="#05CE91"/>
<path d="M370.936 295H357.496L327.064 249.016V295H313.624V227.896H327.064L357.496 273.976V227.896H370.936V295ZM380.762 268.216C380.762 262.84 381.818 258.072 383.93 253.912C386.106 249.752 389.018 246.552 392.666 244.312C396.378 242.072 400.506 240.952 405.05 240.952C409.018 240.952 412.474 241.752 415.418 243.352C418.426 244.952 420.826 246.968 422.618 249.4V241.816H436.154V295H422.618V287.224C420.89 289.72 418.49 291.8 415.418 293.464C412.41 295.064 408.922 295.864 404.954 295.864C400.474 295.864 396.378 294.712 392.666 292.408C389.018 290.104 386.106 286.872 383.93 282.712C381.818 278.488 380.762 273.656 380.762 268.216ZM422.618 268.408C422.618 265.144 421.978 262.36 420.698 260.056C419.418 257.688 417.69 255.896 415.514 254.68C413.338 253.4 411.002 252.76 408.506 252.76C406.01 252.76 403.706 253.368 401.594 254.584C399.482 255.8 397.754 257.592 396.41 259.96C395.13 262.264 394.49 265.016 394.49 268.216C394.49 271.416 395.13 274.232 396.41 276.664C397.754 279.032 399.482 280.856 401.594 282.136C403.77 283.416 406.074 284.056 408.506 284.056C411.002 284.056 413.338 283.448 415.514 282.232C417.69 280.952 419.418 279.16 420.698 276.856C421.978 274.488 422.618 271.672 422.618 268.408ZM469.632 295.864C465.28 295.864 461.376 295.096 457.92 293.56C454.464 291.96 451.712 289.816 449.664 287.128C447.68 284.44 446.592 281.464 446.4 278.2H459.936C460.192 280.248 461.184 281.944 462.912 283.288C464.704 284.632 466.912 285.304 469.536 285.304C472.096 285.304 474.08 284.792 475.488 283.768C476.96 282.744 477.696 281.432 477.696 279.832C477.696 278.104 476.8 276.824 475.008 275.992C473.28 275.096 470.496 274.136 466.656 273.112C462.688 272.152 459.424 271.16 456.864 270.136C454.368 269.112 452.192 267.544 450.336 265.432C448.544 263.32 447.648 260.472 447.648 256.888C447.648 253.944 448.48 251.256 450.144 248.824C451.872 246.392 454.304 244.472 457.44 243.064C460.64 241.656 464.384 240.952 468.672 240.952C475.008 240.952 480.064 242.552 483.84 245.752C487.616 248.888 489.696 253.144 490.08 258.52H477.216C477.024 256.408 476.128 254.744 474.528 253.528C472.992 252.248 470.912 251.608 468.288 251.608C465.856 251.608 463.968 252.056 462.624 252.952C461.344 253.848 460.704 255.096 460.704 256.696C460.704 258.488 461.6 259.864 463.392 260.824C465.184 261.72 467.968 262.648 471.744 263.608C475.584 264.568 478.752 265.56 481.248 266.584C483.744 267.608 485.888 269.208 487.68 271.384C489.536 273.496 490.496 276.312 490.56 279.832C490.56 282.904 489.696 285.656 487.968 288.088C486.304 290.52 483.872 292.44 480.672 293.848C477.536 295.192 473.856 295.864 469.632 295.864ZM542.489 255.064V266.392H501.785V255.064H542.489ZM580.698 295.672C576.026 295.672 571.802 294.872 568.026 293.272C564.314 291.672 561.37 289.368 559.194 286.36C557.018 283.352 555.898 279.8 555.834 275.704H570.234C570.426 278.456 571.386 280.632 573.114 282.232C574.906 283.832 577.338 284.632 580.41 284.632C583.546 284.632 586.01 283.896 587.802 282.424C589.594 280.888 590.49 278.904 590.49 276.472C590.49 274.488 589.882 272.856 588.666 271.576C587.45 270.296 585.914 269.304 584.058 268.6C582.266 267.832 579.77 267 576.57 266.104C572.218 264.824 568.666 263.576 565.914 262.36C563.226 261.08 560.89 259.192 558.906 256.696C556.986 254.136 556.026 250.744 556.026 246.52C556.026 242.552 557.018 239.096 559.002 236.152C560.986 233.208 563.77 230.968 567.354 229.432C570.938 227.832 575.034 227.032 579.642 227.032C586.554 227.032 592.154 228.728 596.442 232.12C600.794 235.448 603.194 240.12 603.642 246.136H588.858C588.73 243.832 587.738 241.944 585.882 240.472C584.09 238.936 581.69 238.168 578.682 238.168C576.058 238.168 573.946 238.84 572.346 240.184C570.81 241.528 570.042 243.48 570.042 246.04C570.042 247.832 570.618 249.336 571.77 250.552C572.986 251.704 574.458 252.664 576.186 253.432C577.978 254.136 580.474 254.968 583.674 255.928C588.026 257.208 591.578 258.488 594.33 259.768C597.082 261.048 599.45 262.968 601.434 265.528C603.418 268.088 604.41 271.448 604.41 275.608C604.41 279.192 603.482 282.52 601.625 285.592C599.77 288.664 597.05 291.128 593.466 292.984C589.882 294.776 585.626 295.672 580.698 295.672ZM612.605 268.408C612.605 262.904 613.726 258.104 615.966 254.008C618.206 249.848 621.31 246.648 625.278 244.408C629.246 242.104 633.79 240.952 638.91 240.952C645.502 240.952 650.942 242.616 655.23 245.944C659.582 249.208 662.494 253.816 663.966 259.768H649.47C648.702 257.464 647.39 255.672 645.534 254.392C643.742 253.048 641.502 252.376 638.814 252.376C634.974 252.376 631.934 253.784 629.694 256.6C627.454 259.352 626.334 263.288 626.334 268.408C626.334 273.464 627.454 277.4 629.694 280.216C631.934 282.968 634.974 284.344 638.814 284.344C644.254 284.344 647.806 281.912 649.47 277.048H663.966C662.494 282.808 659.582 287.384 655.23 290.776C650.878 294.168 645.438 295.864 638.91 295.864C633.79 295.864 629.246 294.744 625.278 292.504C621.31 290.2 618.206 287 615.966 282.904C613.726 278.744 612.605 273.912 612.605 268.408ZM687.252 250.072C688.98 247.256 691.22 245.048 693.972 243.448C696.788 241.848 699.988 241.048 703.572 241.048V255.16H700.02C695.796 255.16 692.596 256.152 690.42 258.136C688.308 260.12 687.252 263.576 687.252 268.504V295H673.812V241.816H687.252V250.072ZM719.44 235.48C717.072 235.48 715.088 234.744 713.488 233.272C711.952 231.736 711.184 229.848 711.184 227.608C711.184 225.368 711.952 223.512 713.488 222.04C715.088 220.504 717.072 219.736 719.44 219.736C721.808 219.736 723.76 220.504 725.296 222.04C726.896 223.512 727.696 225.368 727.696 227.608C727.696 229.848 726.896 231.736 725.296 233.272C723.76 234.744 721.808 235.48 719.44 235.48ZM726.064 241.816V295H712.624V241.816H726.064ZM752.783 249.496C754.511 247.064 756.879 245.048 759.887 243.448C762.959 241.784 766.447 240.952 770.351 240.952C774.895 240.952 778.991 242.072 782.639 244.312C786.351 246.552 789.263 249.752 791.375 253.912C793.551 258.008 794.639 262.776 794.639 268.216C794.639 273.656 793.551 278.488 791.375 282.712C789.263 286.872 786.351 290.104 782.639 292.408C778.991 294.712 774.895 295.864 770.351 295.864C766.447 295.864 762.991 295.064 759.983 293.464C757.039 291.864 754.639 289.848 752.783 287.416V320.344H739.343V241.816H752.783V249.496ZM780.911 268.216C780.911 265.016 780.239 262.264 778.895 259.96C777.615 257.592 775.887 255.8 773.711 254.584C771.599 253.368 769.295 252.76 766.799 252.76C764.367 252.76 762.063 253.4 759.887 254.68C757.775 255.896 756.047 257.688 754.703 260.056C753.423 262.424 752.783 265.208 752.783 268.408C752.783 271.608 753.423 274.392 754.703 276.76C756.047 279.128 757.775 280.952 759.887 282.232C762.063 283.448 764.367 284.056 766.799 284.056C769.295 284.056 771.599 283.416 773.711 282.136C775.887 280.856 777.615 279.032 778.895 276.664C780.239 274.296 780.911 271.48 780.911 268.216ZM820.053 252.856V278.584C820.053 280.376 820.469 281.688 821.301 282.52C822.197 283.288 823.669 283.672 825.717 283.672H831.957V295H823.509C812.181 295 806.517 289.496 806.517 278.488V252.856H800.181V241.816H806.517V228.664H820.053V241.816H831.957V252.856H820.053Z" fill="white"/>
<path d="M245.709 326.04C247.176 326.04 248.463 326.327 249.569 326.9C250.689 327.473 251.549 328.293 252.149 329.36C252.763 330.413 253.069 331.64 253.069 333.04C253.069 334.44 252.763 335.667 252.149 336.72C251.549 337.76 250.689 338.567 249.569 339.14C248.463 339.713 247.176 340 245.709 340H240.829V326.04H245.709ZM245.609 337.62C247.076 337.62 248.209 337.22 249.009 336.42C249.809 335.62 250.209 334.493 250.209 333.04C250.209 331.587 249.809 330.453 249.009 329.64C248.209 328.813 247.076 328.4 245.609 328.4H243.629V337.62H245.609ZM265.465 334.22C265.465 334.62 265.438 334.98 265.385 335.3H257.285C257.352 336.1 257.632 336.727 258.125 337.18C258.618 337.633 259.225 337.86 259.945 337.86C260.985 337.86 261.725 337.413 262.165 336.52H265.185C264.865 337.587 264.252 338.467 263.345 339.16C262.438 339.84 261.325 340.18 260.005 340.18C258.938 340.18 257.978 339.947 257.125 339.48C256.285 339 255.625 338.327 255.145 337.46C254.678 336.593 254.445 335.593 254.445 334.46C254.445 333.313 254.678 332.307 255.145 331.44C255.612 330.573 256.265 329.907 257.105 329.44C257.945 328.973 258.912 328.74 260.005 328.74C261.058 328.74 261.998 328.967 262.825 329.42C263.665 329.873 264.312 330.52 264.765 331.36C265.232 332.187 265.465 333.14 265.465 334.22ZM262.565 333.42C262.552 332.7 262.292 332.127 261.785 331.7C261.278 331.26 260.658 331.04 259.925 331.04C259.232 331.04 258.645 331.253 258.165 331.68C257.698 332.093 257.412 332.673 257.305 333.42H262.565ZM271.749 340.18C270.842 340.18 270.029 340.02 269.309 339.7C268.589 339.367 268.016 338.92 267.589 338.36C267.176 337.8 266.949 337.18 266.909 336.5H269.729C269.782 336.927 269.989 337.28 270.349 337.56C270.722 337.84 271.182 337.98 271.729 337.98C272.262 337.98 272.676 337.873 272.969 337.66C273.276 337.447 273.429 337.173 273.429 336.84C273.429 336.48 273.242 336.213 272.869 336.04C272.509 335.853 271.929 335.653 271.129 335.44C270.302 335.24 269.622 335.033 269.089 334.82C268.569 334.607 268.116 334.28 267.729 333.84C267.356 333.4 267.169 332.807 267.169 332.06C267.169 331.447 267.342 330.887 267.689 330.38C268.049 329.873 268.556 329.473 269.209 329.18C269.876 328.887 270.656 328.74 271.549 328.74C272.869 328.74 273.922 329.073 274.709 329.74C275.496 330.393 275.929 331.28 276.009 332.4H273.329C273.289 331.96 273.102 331.613 272.769 331.36C272.449 331.093 272.016 330.96 271.469 330.96C270.962 330.96 270.569 331.053 270.289 331.24C270.022 331.427 269.889 331.687 269.889 332.02C269.889 332.393 270.076 332.68 270.449 332.88C270.822 333.067 271.402 333.26 272.189 333.46C272.989 333.66 273.649 333.867 274.169 334.08C274.689 334.293 275.136 334.627 275.509 335.08C275.896 335.52 276.096 336.107 276.109 336.84C276.109 337.48 275.929 338.053 275.569 338.56C275.222 339.067 274.716 339.467 274.049 339.76C273.396 340.04 272.629 340.18 271.749 340.18ZM287.413 340.18C286.506 340.18 285.693 340.02 284.973 339.7C284.253 339.367 283.68 338.92 283.253 338.36C282.84 337.8 282.613 337.18 282.573 336.5H285.393C285.446 336.927 285.653 337.28 286.013 337.56C286.386 337.84 286.846 337.98 287.393 337.98C287.926 337.98 288.34 337.873 288.633 337.66C288.94 337.447 289.093 337.173 289.093 336.84C289.093 336.48 288.906 336.213 288.533 336.04C288.173 335.853 287.593 335.653 286.793 335.44C285.966 335.24 285.286 335.033 284.753 334.82C284.233 334.607 283.78 334.28 283.393 333.84C283.02 333.4 282.833 332.807 282.833 332.06C282.833 331.447 283.006 330.887 283.353 330.38C283.713 329.873 284.22 329.473 284.873 329.18C285.54 328.887 286.32 328.74 287.213 328.74C288.533 328.74 289.586 329.073 290.373 329.74C291.16 330.393 291.593 331.28 291.673 332.4H288.993C288.953 331.96 288.766 331.613 288.433 331.36C288.113 331.093 287.68 330.96 287.133 330.96C286.626 330.96 286.233 331.053 285.953 331.24C285.686 331.427 285.553 331.687 285.553 332.02C285.553 332.393 285.74 332.68 286.113 332.88C286.486 333.067 287.066 333.26 287.853 333.46C288.653 333.66 289.313 333.867 289.833 334.08C290.353 334.293 290.8 334.627 291.173 335.08C291.56 335.52 291.76 336.107 291.773 336.84C291.773 337.48 291.593 338.053 291.233 338.56C290.886 339.067 290.38 339.467 289.713 339.76C289.06 340.04 288.293 340.18 287.413 340.18ZM293.351 334.46C293.351 333.313 293.585 332.313 294.051 331.46C294.518 330.593 295.165 329.927 295.991 329.46C296.818 328.98 297.765 328.74 298.831 328.74C300.205 328.74 301.338 329.087 302.231 329.78C303.138 330.46 303.745 331.42 304.051 332.66H301.031C300.871 332.18 300.598 331.807 300.211 331.54C299.838 331.26 299.371 331.12 298.811 331.12C298.011 331.12 297.378 331.413 296.911 332C296.445 332.573 296.211 333.393 296.211 334.46C296.211 335.513 296.445 336.333 296.911 336.92C297.378 337.493 298.011 337.78 298.811 337.78C299.945 337.78 300.685 337.273 301.031 336.26H304.051C303.745 337.46 303.138 338.413 302.231 339.12C301.325 339.827 300.191 340.18 298.831 340.18C297.765 340.18 296.818 339.947 295.991 339.48C295.165 339 294.518 338.333 294.051 337.48C293.585 336.613 293.351 335.607 293.351 334.46ZM308.903 330.64C309.263 330.053 309.729 329.593 310.303 329.26C310.889 328.927 311.556 328.76 312.303 328.76V331.7H311.563C310.683 331.7 310.016 331.907 309.563 332.32C309.123 332.733 308.903 333.453 308.903 334.48V340H306.103V328.92H308.903V330.64ZM315.609 327.6C315.115 327.6 314.702 327.447 314.369 327.14C314.049 326.82 313.889 326.427 313.889 325.96C313.889 325.493 314.049 325.107 314.369 324.8C314.702 324.48 315.115 324.32 315.609 324.32C316.102 324.32 316.509 324.48 316.829 324.8C317.162 325.107 317.329 325.493 317.329 325.96C317.329 326.427 317.162 326.82 316.829 327.14C316.509 327.447 316.102 327.6 315.609 327.6ZM316.989 328.92V340H314.189V328.92H316.989ZM322.555 330.52C322.915 330.013 323.408 329.593 324.035 329.26C324.675 328.913 325.402 328.74 326.215 328.74C327.162 328.74 328.015 328.973 328.775 329.44C329.548 329.907 330.155 330.573 330.595 331.44C331.048 332.293 331.275 333.287 331.275 334.42C331.275 335.553 331.048 336.56 330.595 337.44C330.155 338.307 329.548 338.98 328.775 339.46C328.015 339.94 327.162 340.18 326.215 340.18C325.402 340.18 324.682 340.013 324.055 339.68C323.442 339.347 322.942 338.927 322.555 338.42V345.28H319.755V328.92H322.555V330.52ZM328.415 334.42C328.415 333.753 328.275 333.18 327.995 332.7C327.728 332.207 327.368 331.833 326.915 331.58C326.475 331.327 325.995 331.2 325.475 331.2C324.968 331.2 324.488 331.333 324.035 331.6C323.595 331.853 323.235 332.227 322.955 332.72C322.688 333.213 322.555 333.793 322.555 334.46C322.555 335.127 322.688 335.707 322.955 336.2C323.235 336.693 323.595 337.073 324.035 337.34C324.488 337.593 324.968 337.72 325.475 337.72C325.995 337.72 326.475 337.587 326.915 337.32C327.368 337.053 327.728 336.673 327.995 336.18C328.275 335.687 328.415 335.1 328.415 334.42ZM336.57 331.22V336.58C336.57 336.953 336.656 337.227 336.83 337.4C337.016 337.56 337.323 337.64 337.75 337.64H339.05V340H337.29C334.93 340 333.75 338.853 333.75 336.56V331.22H332.43V328.92H333.75V326.18H336.57V328.92H339.05V331.22H336.57ZM345.304 340.18C344.397 340.18 343.584 340.02 342.864 339.7C342.144 339.367 341.57 338.92 341.144 338.36C340.73 337.8 340.504 337.18 340.464 336.5H343.284C343.337 336.927 343.544 337.28 343.904 337.56C344.277 337.84 344.737 337.98 345.284 337.98C345.817 337.98 346.23 337.873 346.524 337.66C346.83 337.447 346.984 337.173 346.984 336.84C346.984 336.48 346.797 336.213 346.424 336.04C346.064 335.853 345.484 335.653 344.684 335.44C343.857 335.24 343.177 335.033 342.644 334.82C342.124 334.607 341.67 334.28 341.284 333.84C340.91 333.4 340.724 332.807 340.724 332.06C340.724 331.447 340.897 330.887 341.244 330.38C341.604 329.873 342.11 329.473 342.764 329.18C343.43 328.887 344.21 328.74 345.104 328.74C346.424 328.74 347.477 329.073 348.264 329.74C349.05 330.393 349.484 331.28 349.564 332.4H346.884C346.844 331.96 346.657 331.613 346.324 331.36C346.004 331.093 345.57 330.96 345.024 330.96C344.517 330.96 344.124 331.053 343.844 331.24C343.577 331.427 343.444 331.687 343.444 332.02C343.444 332.393 343.63 332.68 344.004 332.88C344.377 333.067 344.957 333.26 345.744 333.46C346.544 333.66 347.204 333.867 347.724 334.08C348.244 334.293 348.69 334.627 349.064 335.08C349.45 335.52 349.65 336.107 349.664 336.84C349.664 337.48 349.484 338.053 349.124 338.56C348.777 339.067 348.27 339.467 347.604 339.76C346.95 340.04 346.184 340.18 345.304 340.18ZM356.008 334.42C356.008 333.3 356.228 332.307 356.668 331.44C357.121 330.573 357.728 329.907 358.488 329.44C359.261 328.973 360.121 328.74 361.068 328.74C361.894 328.74 362.614 328.907 363.228 329.24C363.854 329.573 364.354 329.993 364.728 330.5V328.92H367.548V340H364.728V338.38C364.368 338.9 363.868 339.333 363.228 339.68C362.601 340.013 361.874 340.18 361.048 340.18C360.114 340.18 359.261 339.94 358.488 339.46C357.728 338.98 357.121 338.307 356.668 337.44C356.228 336.56 356.008 335.553 356.008 334.42ZM364.728 334.46C364.728 333.78 364.594 333.2 364.328 332.72C364.061 332.227 363.701 331.853 363.248 331.6C362.794 331.333 362.308 331.2 361.788 331.2C361.268 331.2 360.788 331.327 360.348 331.58C359.908 331.833 359.548 332.207 359.268 332.7C359.001 333.18 358.868 333.753 358.868 334.42C358.868 335.087 359.001 335.673 359.268 336.18C359.548 336.673 359.908 337.053 360.348 337.32C360.801 337.587 361.281 337.72 361.788 337.72C362.308 337.72 362.794 337.593 363.248 337.34C363.701 337.073 364.061 336.7 364.328 336.22C364.594 335.727 364.728 335.14 364.728 334.46ZM364.348 326.14V328.14L359.748 326.04V323.76L364.348 326.14ZM377.848 325.2V340H375.048V325.2H377.848ZM379.894 334.42C379.894 333.3 380.114 332.307 380.554 331.44C381.008 330.573 381.614 329.907 382.374 329.44C383.148 328.973 384.008 328.74 384.954 328.74C385.781 328.74 386.501 328.907 387.114 329.24C387.741 329.573 388.241 329.993 388.614 330.5V328.92H391.434V340H388.614V338.38C388.254 338.9 387.754 339.333 387.114 339.68C386.488 340.013 385.761 340.18 384.934 340.18C384.001 340.18 383.148 339.94 382.374 339.46C381.614 338.98 381.008 338.307 380.554 337.44C380.114 336.56 379.894 335.553 379.894 334.42ZM388.614 334.46C388.614 333.78 388.481 333.2 388.214 332.72C387.948 332.227 387.588 331.853 387.134 331.6C386.681 331.333 386.194 331.2 385.674 331.2C385.154 331.2 384.674 331.327 384.234 331.58C383.794 331.833 383.434 332.207 383.154 332.7C382.888 333.18 382.754 333.753 382.754 334.42C382.754 335.087 382.888 335.673 383.154 336.18C383.434 336.673 383.794 337.053 384.234 337.32C384.688 337.587 385.168 337.72 385.674 337.72C386.194 337.72 386.681 337.593 387.134 337.34C387.588 337.073 387.948 336.7 388.214 336.22C388.481 335.727 388.614 335.14 388.614 334.46ZM401.735 330.52C402.095 330.013 402.588 329.593 403.215 329.26C403.855 328.913 404.581 328.74 405.395 328.74C406.341 328.74 407.195 328.973 407.955 329.44C408.728 329.907 409.335 330.573 409.775 331.44C410.228 332.293 410.455 333.287 410.455 334.42C410.455 335.553 410.228 336.56 409.775 337.44C409.335 338.307 408.728 338.98 407.955 339.46C407.195 339.94 406.341 340.18 405.395 340.18C404.581 340.18 403.861 340.013 403.235 339.68C402.621 339.347 402.121 338.927 401.735 338.42V345.28H398.935V328.92H401.735V330.52ZM407.595 334.42C407.595 333.753 407.455 333.18 407.175 332.7C406.908 332.207 406.548 331.833 406.095 331.58C405.655 331.327 405.175 331.2 404.655 331.2C404.148 331.2 403.668 331.333 403.215 331.6C402.775 331.853 402.415 332.227 402.135 332.72C401.868 333.213 401.735 333.793 401.735 334.46C401.735 335.127 401.868 335.707 402.135 336.2C402.415 336.693 402.775 337.073 403.215 337.34C403.668 337.593 404.148 337.72 404.655 337.72C405.175 337.72 405.655 337.587 406.095 337.32C406.548 337.053 406.908 336.673 407.175 336.18C407.455 335.687 407.595 335.1 407.595 334.42ZM417.409 340.18C416.343 340.18 415.383 339.947 414.529 339.48C413.676 339 413.003 338.327 412.509 337.46C412.029 336.593 411.789 335.593 411.789 334.46C411.789 333.327 412.036 332.327 412.529 331.46C413.036 330.593 413.723 329.927 414.589 329.46C415.456 328.98 416.423 328.74 417.489 328.74C418.556 328.74 419.523 328.98 420.389 329.46C421.256 329.927 421.936 330.593 422.429 331.46C422.936 332.327 423.189 333.327 423.189 334.46C423.189 335.593 422.929 336.593 422.409 337.46C421.903 338.327 421.209 339 420.329 339.48C419.463 339.947 418.489 340.18 417.409 340.18ZM417.409 337.74C417.916 337.74 418.389 337.62 418.829 337.38C419.283 337.127 419.643 336.753 419.909 336.26C420.176 335.767 420.309 335.167 420.309 334.46C420.309 333.407 420.029 332.6 419.469 332.04C418.923 331.467 418.249 331.18 417.449 331.18C416.649 331.18 415.976 331.467 415.429 332.04C414.896 332.6 414.629 333.407 414.629 334.46C414.629 335.513 414.889 336.327 415.409 336.9C415.943 337.46 416.609 337.74 417.409 337.74ZM426.663 327.6C426.17 327.6 425.757 327.447 425.423 327.14C425.103 326.82 424.943 326.427 424.943 325.96C424.943 325.493 425.103 325.107 425.423 324.8C425.757 324.48 426.17 324.32 426.663 324.32C427.157 324.32 427.563 324.48 427.883 324.8C428.217 325.107 428.383 325.493 428.383 325.96C428.383 326.427 428.217 326.82 427.883 327.14C427.563 327.447 427.157 327.6 426.663 327.6ZM428.043 328.92V340H425.243V328.92H428.043ZM436.95 328.76C438.27 328.76 439.336 329.18 440.15 330.02C440.963 330.847 441.37 332.007 441.37 333.5V340H438.57V333.88C438.57 333 438.35 332.327 437.91 331.86C437.47 331.38 436.87 331.14 436.11 331.14C435.336 331.14 434.723 331.38 434.27 331.86C433.83 332.327 433.61 333 433.61 333.88V340H430.81V328.92H433.61V330.3C433.983 329.82 434.456 329.447 435.03 329.18C435.616 328.9 436.256 328.76 436.95 328.76ZM447.292 331.22V336.58C447.292 336.953 447.379 337.227 447.552 337.4C447.739 337.56 448.046 337.64 448.472 337.64H449.772V340H448.012C445.652 340 444.472 338.853 444.472 336.56V331.22H443.152V328.92H444.472V326.18H447.292V328.92H449.772V331.22H447.292ZM462.086 334.22C462.086 334.62 462.06 334.98 462.006 335.3H453.906C453.973 336.1 454.253 336.727 454.746 337.18C455.24 337.633 455.846 337.86 456.566 337.86C457.606 337.86 458.346 337.413 458.786 336.52H461.806C461.486 337.587 460.873 338.467 459.966 339.16C459.06 339.84 457.946 340.18 456.626 340.18C455.56 340.18 454.6 339.947 453.746 339.48C452.906 339 452.246 338.327 451.766 337.46C451.3 336.593 451.066 335.593 451.066 334.46C451.066 333.313 451.3 332.307 451.766 331.44C452.233 330.573 452.886 329.907 453.726 329.44C454.566 328.973 455.533 328.74 456.626 328.74C457.68 328.74 458.62 328.967 459.446 329.42C460.286 329.873 460.933 330.52 461.386 331.36C461.853 332.187 462.086 333.14 462.086 334.22ZM459.186 333.42C459.173 332.7 458.913 332.127 458.406 331.7C457.9 331.26 457.28 331.04 456.546 331.04C455.853 331.04 455.266 331.253 454.786 331.68C454.32 332.093 454.033 332.673 453.926 333.42H459.186ZM468.176 334.42C468.176 333.3 468.396 332.307 468.836 331.44C469.289 330.573 469.902 329.907 470.676 329.44C471.449 328.973 472.309 328.74 473.256 328.74C473.976 328.74 474.662 328.9 475.316 329.22C475.969 329.527 476.489 329.94 476.876 330.46V325.2H479.716V340H476.876V338.36C476.529 338.907 476.042 339.347 475.416 339.68C474.789 340.013 474.062 340.18 473.236 340.18C472.302 340.18 471.449 339.94 470.676 339.46C469.902 338.98 469.289 338.307 468.836 337.44C468.396 336.56 468.176 335.553 468.176 334.42ZM476.896 334.46C476.896 333.78 476.762 333.2 476.496 332.72C476.229 332.227 475.869 331.853 475.416 331.6C474.962 331.333 474.476 331.2 473.956 331.2C473.436 331.2 472.956 331.327 472.516 331.58C472.076 331.833 471.716 332.207 471.436 332.7C471.169 333.18 471.036 333.753 471.036 334.42C471.036 335.087 471.169 335.673 471.436 336.18C471.716 336.673 472.076 337.053 472.516 337.32C472.969 337.587 473.449 337.72 473.956 337.72C474.476 337.72 474.962 337.593 475.416 337.34C475.869 337.073 476.229 336.7 476.496 336.22C476.762 335.727 476.896 335.14 476.896 334.46ZM492.75 334.22C492.75 334.62 492.724 334.98 492.67 335.3H484.57C484.637 336.1 484.917 336.727 485.41 337.18C485.904 337.633 486.51 337.86 487.23 337.86C488.27 337.86 489.01 337.413 489.45 336.52H492.47C492.15 337.587 491.537 338.467 490.63 339.16C489.724 339.84 488.61 340.18 487.29 340.18C486.224 340.18 485.264 339.947 484.41 339.48C483.57 339 482.91 338.327 482.43 337.46C481.964 336.593 481.73 335.593 481.73 334.46C481.73 333.313 481.964 332.307 482.43 331.44C482.897 330.573 483.55 329.907 484.39 329.44C485.23 328.973 486.197 328.74 487.29 328.74C488.344 328.74 489.284 328.967 490.11 329.42C490.95 329.873 491.597 330.52 492.05 331.36C492.517 332.187 492.75 333.14 492.75 334.22ZM489.85 333.42C489.837 332.7 489.577 332.127 489.07 331.7C488.564 331.26 487.944 331.04 487.21 331.04C486.517 331.04 485.93 331.253 485.45 331.68C484.984 332.093 484.697 332.673 484.59 333.42H489.85ZM502.36 325.2V340H499.56V325.2H502.36ZM506.886 324.04L506.646 328.28H504.746L504.486 324.04H506.886ZM510.452 327.6C509.959 327.6 509.546 327.447 509.212 327.14C508.892 326.82 508.732 326.427 508.732 325.96C508.732 325.493 508.892 325.107 509.212 324.8C509.546 324.48 509.959 324.32 510.452 324.32C510.946 324.32 511.352 324.48 511.672 324.8C512.006 325.107 512.172 325.493 512.172 325.96C512.172 326.427 512.006 326.82 511.672 327.14C511.352 327.447 510.946 327.6 510.452 327.6ZM511.832 328.92V340H509.032V328.92H511.832ZM520.739 328.76C522.059 328.76 523.125 329.18 523.939 330.02C524.752 330.847 525.159 332.007 525.159 333.5V340H522.359V333.88C522.359 333 522.139 332.327 521.699 331.86C521.259 331.38 520.659 331.14 519.899 331.14C519.125 331.14 518.512 331.38 518.059 331.86C517.619 332.327 517.399 333 517.399 333.88V340H514.599V328.92H517.399V330.3C517.772 329.82 518.245 329.447 518.819 329.18C519.405 328.9 520.045 328.76 520.739 328.76ZM533.961 328.76C535.281 328.76 536.348 329.18 537.161 330.02C537.975 330.847 538.381 332.007 538.381 333.5V340H535.581V333.88C535.581 333 535.361 332.327 534.921 331.86C534.481 331.38 533.881 331.14 533.121 331.14C532.348 331.14 531.735 331.38 531.281 331.86C530.841 332.327 530.621 333 530.621 333.88V340H527.821V328.92H530.621V330.3C530.995 329.82 531.468 329.447 532.041 329.18C532.628 328.9 533.268 328.76 533.961 328.76ZM545.964 340.18C544.897 340.18 543.937 339.947 543.084 339.48C542.231 339 541.557 338.327 541.064 337.46C540.584 336.593 540.344 335.593 540.344 334.46C540.344 333.327 540.591 332.327 541.084 331.46C541.591 330.593 542.277 329.927 543.144 329.46C544.011 328.98 544.977 328.74 546.044 328.74C547.111 328.74 548.077 328.98 548.944 329.46C549.811 329.927 550.491 330.593 550.984 331.46C551.491 332.327 551.744 333.327 551.744 334.46C551.744 335.593 551.484 336.593 550.964 337.46C550.457 338.327 549.764 339 548.884 339.48C548.017 339.947 547.044 340.18 545.964 340.18ZM545.964 337.74C546.471 337.74 546.944 337.62 547.384 337.38C547.837 337.127 548.197 336.753 548.464 336.26C548.731 335.767 548.864 335.167 548.864 334.46C548.864 333.407 548.584 332.6 548.024 332.04C547.477 331.467 546.804 331.18 546.004 331.18C545.204 331.18 544.531 331.467 543.984 332.04C543.451 332.6 543.184 333.407 543.184 334.46C543.184 335.513 543.444 336.327 543.964 336.9C544.497 337.46 545.164 337.74 545.964 337.74ZM558.418 337.42L561.218 328.92H564.198L560.098 340H556.698L552.618 328.92H555.618L558.418 337.42ZM565.051 334.42C565.051 333.3 565.271 332.307 565.711 331.44C566.164 330.573 566.771 329.907 567.531 329.44C568.304 328.973 569.164 328.74 570.111 328.74C570.937 328.74 571.657 328.907 572.271 329.24C572.897 329.573 573.397 329.993 573.771 330.5V328.92H576.591V340H573.771V338.38C573.411 338.9 572.911 339.333 572.271 339.68C571.644 340.013 570.917 340.18 570.091 340.18C569.157 340.18 568.304 339.94 567.531 339.46C566.771 338.98 566.164 338.307 565.711 337.44C565.271 336.56 565.051 335.553 565.051 334.42ZM573.771 334.46C573.771 333.78 573.637 333.2 573.371 332.72C573.104 332.227 572.744 331.853 572.291 331.6C571.837 331.333 571.351 331.2 570.831 331.2C570.311 331.2 569.831 331.327 569.391 331.58C568.951 331.833 568.591 332.207 568.311 332.7C568.044 333.18 567.911 333.753 567.911 334.42C567.911 335.087 568.044 335.673 568.311 336.18C568.591 336.673 568.951 337.053 569.391 337.32C569.844 337.587 570.324 337.72 570.831 337.72C571.351 337.72 571.837 337.593 572.291 337.34C572.744 337.073 573.104 336.7 573.371 336.22C573.637 335.727 573.771 335.14 573.771 334.46ZM582.585 331.22V336.58C582.585 336.953 582.672 337.227 582.845 337.4C583.032 337.56 583.339 337.64 583.765 337.64H585.065V340H583.305C580.945 340 579.765 338.853 579.765 336.56V331.22H578.445V328.92H579.765V326.18H582.585V328.92H585.065V331.22H582.585ZM588.499 327.6C588.006 327.6 587.593 327.447 587.259 327.14C586.939 326.82 586.779 326.427 586.779 325.96C586.779 325.493 586.939 325.107 587.259 324.8C587.593 324.48 588.006 324.32 588.499 324.32C588.993 324.32 589.399 324.48 589.719 324.8C590.053 325.107 590.219 325.493 590.219 325.96C590.219 326.427 590.053 326.82 589.719 327.14C589.399 327.447 588.993 327.6 588.499 327.6ZM589.879 328.92V340H587.079V328.92H589.879ZM597.566 340.18C596.499 340.18 595.539 339.947 594.686 339.48C593.832 339 593.159 338.327 592.666 337.46C592.186 336.593 591.946 335.593 591.946 334.46C591.946 333.327 592.192 332.327 592.686 331.46C593.192 330.593 593.879 329.927 594.746 329.46C595.612 328.98 596.579 328.74 597.646 328.74C598.712 328.74 599.679 328.98 600.546 329.46C601.412 329.927 602.092 330.593 602.586 331.46C603.092 332.327 603.346 333.327 603.346 334.46C603.346 335.593 603.086 336.593 602.566 337.46C602.059 338.327 601.366 339 600.486 339.48C599.619 339.947 598.646 340.18 597.566 340.18ZM597.566 337.74C598.072 337.74 598.546 337.62 598.986 337.38C599.439 337.127 599.799 336.753 600.066 336.26C600.332 335.767 600.466 335.167 600.466 334.46C600.466 333.407 600.186 332.6 599.626 332.04C599.079 331.467 598.406 331.18 597.606 331.18C596.806 331.18 596.132 331.467 595.586 332.04C595.052 332.6 594.786 333.407 594.786 334.46C594.786 335.513 595.046 336.327 595.566 336.9C596.099 337.46 596.766 337.74 597.566 337.74ZM611.54 328.76C612.86 328.76 613.926 329.18 614.74 330.02C615.553 330.847 615.96 332.007 615.96 333.5V340H613.16V333.88C613.16 333 612.94 332.327 612.5 331.86C612.06 331.38 611.46 331.14 610.7 331.14C609.926 331.14 609.313 331.38 608.86 331.86C608.42 332.327 608.2 333 608.2 333.88V340H605.4V328.92H608.2V330.3C608.573 329.82 609.046 329.447 609.62 329.18C610.206 328.9 610.846 328.76 611.54 328.76ZM626.188 330.52C626.548 330.013 627.041 329.593 627.668 329.26C628.308 328.913 629.034 328.74 629.848 328.74C630.794 328.74 631.648 328.973 632.408 329.44C633.181 329.907 633.788 330.573 634.228 331.44C634.681 332.293 634.908 333.287 634.908 334.42C634.908 335.553 634.681 336.56 634.228 337.44C633.788 338.307 633.181 338.98 632.408 339.46C631.648 339.94 630.794 340.18 629.848 340.18C629.034 340.18 628.314 340.013 627.688 339.68C627.074 339.347 626.574 338.927 626.188 338.42V345.28H623.388V328.92H626.188V330.52ZM632.048 334.42C632.048 333.753 631.908 333.18 631.628 332.7C631.361 332.207 631.001 331.833 630.548 331.58C630.108 331.327 629.628 331.2 629.108 331.2C628.601 331.2 628.121 331.333 627.668 331.6C627.228 331.853 626.868 332.227 626.588 332.72C626.321 333.213 626.188 333.793 626.188 334.46C626.188 335.127 626.321 335.707 626.588 336.2C626.868 336.693 627.228 337.073 627.668 337.34C628.121 337.593 628.601 337.72 629.108 337.72C629.628 337.72 630.108 337.587 630.548 337.32C631.001 337.053 631.361 336.673 631.628 336.18C631.908 335.687 632.048 335.1 632.048 334.42ZM641.863 340.18C640.796 340.18 639.836 339.947 638.983 339.48C638.129 339 637.456 338.327 636.963 337.46C636.483 336.593 636.243 335.593 636.243 334.46C636.243 333.327 636.489 332.327 636.983 331.46C637.489 330.593 638.176 329.927 639.043 329.46C639.909 328.98 640.876 328.74 641.943 328.74C643.009 328.74 643.976 328.98 644.843 329.46C645.709 329.927 646.389 330.593 646.883 331.46C647.389 332.327 647.643 333.327 647.643 334.46C647.643 335.593 647.383 336.593 646.862 337.46C646.356 338.327 645.663 339 644.783 339.48C643.916 339.947 642.943 340.18 641.863 340.18ZM641.863 337.74C642.369 337.74 642.843 337.62 643.283 337.38C643.736 337.127 644.096 336.753 644.363 336.26C644.629 335.767 644.763 335.167 644.763 334.46C644.763 333.407 644.483 332.6 643.923 332.04C643.376 331.467 642.703 331.18 641.903 331.18C641.103 331.18 640.429 331.467 639.883 332.04C639.349 332.6 639.083 333.407 639.083 334.46C639.083 335.513 639.343 336.327 639.863 336.9C640.396 337.46 641.063 337.74 641.863 337.74ZM660.156 328.92V340H657.336V338.6C656.976 339.08 656.503 339.46 655.916 339.74C655.343 340.007 654.716 340.14 654.036 340.14C653.17 340.14 652.403 339.96 651.736 339.6C651.07 339.227 650.543 338.687 650.156 337.98C649.783 337.26 649.596 336.407 649.596 335.42V328.92H652.396V335.02C652.396 335.9 652.616 336.58 653.056 337.06C653.496 337.527 654.096 337.76 654.856 337.76C655.63 337.76 656.236 337.527 656.676 337.06C657.116 336.58 657.336 335.9 657.336 335.02V328.92H660.156ZM665.719 330.64C666.079 330.053 666.546 329.593 667.119 329.26C667.706 328.927 668.372 328.76 669.119 328.76V331.7H668.379C667.499 331.7 666.832 331.907 666.379 332.32C665.939 332.733 665.719 333.453 665.719 334.48V340H662.919V328.92H665.719V330.64ZM686.231 328.92V340H683.411V338.6C683.051 339.08 682.577 339.46 681.991 339.74C681.417 340.007 680.791 340.14 680.111 340.14C679.244 340.14 678.477 339.96 677.811 339.6C677.144 339.227 676.617 338.687 676.231 337.98C675.857 337.26 675.671 336.407 675.671 335.42V328.92H678.471V335.02C678.471 335.9 678.691 336.58 679.131 337.06C679.571 337.527 680.171 337.76 680.931 337.76C681.704 337.76 682.311 337.527 682.751 337.06C683.191 336.58 683.411 335.9 683.411 335.02V328.92H686.231ZM695.133 328.76C696.453 328.76 697.52 329.18 698.333 330.02C699.147 330.847 699.553 332.007 699.553 333.5V340H696.753V333.88C696.753 333 696.533 332.327 696.093 331.86C695.653 331.38 695.053 331.14 694.293 331.14C693.52 331.14 692.907 331.38 692.453 331.86C692.013 332.327 691.793 333 691.793 333.88V340H688.993V328.92H691.793V330.3C692.167 329.82 692.64 329.447 693.213 329.18C693.8 328.9 694.44 328.76 695.133 328.76ZM711.322 328.74C712.148 328.74 712.875 328.907 713.502 329.24C714.128 329.56 714.622 329.98 714.982 330.5V328.92H717.802V340.08C717.802 341.107 717.595 342.02 717.182 342.82C716.768 343.633 716.148 344.273 715.322 344.74C714.495 345.22 713.495 345.46 712.322 345.46C710.748 345.46 709.455 345.093 708.442 344.36C707.442 343.627 706.875 342.627 706.742 341.36H709.522C709.668 341.867 709.982 342.267 710.462 342.56C710.955 342.867 711.548 343.02 712.242 343.02C713.055 343.02 713.715 342.773 714.222 342.28C714.728 341.8 714.982 341.067 714.982 340.08V338.36C714.622 338.88 714.122 339.313 713.482 339.66C712.855 340.007 712.135 340.18 711.322 340.18C710.388 340.18 709.535 339.94 708.762 339.46C707.988 338.98 707.375 338.307 706.922 337.44C706.482 336.56 706.262 335.553 706.262 334.42C706.262 333.3 706.482 332.307 706.922 331.44C707.375 330.573 707.982 329.907 708.742 329.44C709.515 328.973 710.375 328.74 711.322 328.74ZM714.982 334.46C714.982 333.78 714.848 333.2 714.582 332.72C714.315 332.227 713.955 331.853 713.502 331.6C713.048 331.333 712.562 331.2 712.042 331.2C711.522 331.2 711.042 331.327 710.602 331.58C710.162 331.833 709.802 332.207 709.522 332.7C709.255 333.18 709.122 333.753 709.122 334.42C709.122 335.087 709.255 335.673 709.522 336.18C709.802 336.673 710.162 337.053 710.602 337.32C711.055 337.587 711.535 337.72 712.042 337.72C712.562 337.72 713.048 337.593 713.502 337.34C713.955 337.073 714.315 336.7 714.582 336.22C714.848 335.727 714.982 335.14 714.982 334.46ZM719.816 334.42C719.816 333.3 720.036 332.307 720.476 331.44C720.93 330.573 721.536 329.907 722.296 329.44C723.07 328.973 723.93 328.74 724.876 328.74C725.703 328.74 726.423 328.907 727.036 329.24C727.663 329.573 728.163 329.993 728.536 330.5V328.92H731.356V340H728.536V338.38C728.176 338.9 727.676 339.333 727.036 339.68C726.41 340.013 725.683 340.18 724.856 340.18C723.923 340.18 723.07 339.94 722.296 339.46C721.536 338.98 720.93 338.307 720.476 337.44C720.036 336.56 719.816 335.553 719.816 334.42ZM728.536 334.46C728.536 333.78 728.403 333.2 728.136 332.72C727.87 332.227 727.51 331.853 727.056 331.6C726.603 331.333 726.116 331.2 725.596 331.2C725.076 331.2 724.596 331.327 724.156 331.58C723.716 331.833 723.356 332.207 723.076 332.7C722.81 333.18 722.676 333.753 722.676 334.42C722.676 335.087 722.81 335.673 723.076 336.18C723.356 336.673 723.716 337.053 724.156 337.32C724.61 337.587 725.09 337.72 725.596 337.72C726.116 337.72 726.603 337.593 727.056 337.34C727.51 337.073 727.87 336.7 728.136 336.22C728.403 335.727 728.536 335.14 728.536 334.46ZM747.851 328.76C749.211 328.76 750.304 329.18 751.131 330.02C751.971 330.847 752.391 332.007 752.391 333.5V340H749.591V333.88C749.591 333.013 749.371 332.353 748.931 331.9C748.491 331.433 747.891 331.2 747.131 331.2C746.371 331.2 745.764 331.433 745.311 331.9C744.871 332.353 744.651 333.013 744.651 333.88V340H741.851V333.88C741.851 333.013 741.631 332.353 741.191 331.9C740.751 331.433 740.151 331.2 739.391 331.2C738.618 331.2 738.004 331.433 737.551 331.9C737.111 332.353 736.891 333.013 736.891 333.88V340H734.091V328.92H736.891V330.26C737.251 329.793 737.711 329.427 738.271 329.16C738.844 328.893 739.471 328.76 740.151 328.76C741.018 328.76 741.791 328.947 742.471 329.32C743.151 329.68 743.678 330.2 744.051 330.88C744.411 330.24 744.931 329.727 745.611 329.34C746.304 328.953 747.051 328.76 747.851 328.76ZM765.348 334.22C765.348 334.62 765.321 334.98 765.268 335.3H757.168C757.235 336.1 757.515 336.727 758.008 337.18C758.501 337.633 759.108 337.86 759.828 337.86C760.868 337.86 761.608 337.413 762.048 336.52H765.068C764.748 337.587 764.135 338.467 763.228 339.16C762.321 339.84 761.208 340.18 759.888 340.18C758.821 340.18 757.861 339.947 757.008 339.48C756.168 339 755.508 338.327 755.028 337.46C754.561 336.593 754.328 335.593 754.328 334.46C754.328 333.313 754.561 332.307 755.028 331.44C755.495 330.573 756.148 329.907 756.988 329.44C757.828 328.973 758.795 328.74 759.888 328.74C760.941 328.74 761.881 328.967 762.708 329.42C763.548 329.873 764.195 330.52 764.648 331.36C765.115 332.187 765.348 333.14 765.348 334.22ZM762.448 333.42C762.435 332.7 762.175 332.127 761.668 331.7C761.161 331.26 760.541 331.04 759.808 331.04C759.115 331.04 758.528 331.253 758.048 331.68C757.581 332.093 757.295 332.673 757.188 333.42H762.448ZM770.192 330.52C770.552 330.013 771.045 329.593 771.672 329.26C772.312 328.913 773.038 328.74 773.852 328.74C774.798 328.74 775.652 328.973 776.412 329.44C777.185 329.907 777.792 330.573 778.232 331.44C778.685 332.293 778.912 333.287 778.912 334.42C778.912 335.553 778.685 336.56 778.232 337.44C777.792 338.307 777.185 338.98 776.412 339.46C775.652 339.94 774.798 340.18 773.852 340.18C773.038 340.18 772.318 340.013 771.692 339.68C771.078 339.347 770.578 338.927 770.192 338.42V345.28H767.392V328.92H770.192V330.52ZM776.052 334.42C776.052 333.753 775.912 333.18 775.632 332.7C775.365 332.207 775.005 331.833 774.552 331.58C774.112 331.327 773.632 331.2 773.112 331.2C772.605 331.2 772.125 331.333 771.672 331.6C771.232 331.853 770.872 332.227 770.592 332.72C770.325 333.213 770.192 333.793 770.192 334.46C770.192 335.127 770.325 335.707 770.592 336.2C770.872 336.693 771.232 337.073 771.672 337.34C772.125 337.593 772.605 337.72 773.112 337.72C773.632 337.72 774.112 337.587 774.552 337.32C775.005 337.053 775.365 336.673 775.632 336.18C775.912 335.687 776.052 335.1 776.052 334.42ZM783.746 325.2V340H780.946V325.2H783.746ZM785.793 334.42C785.793 333.3 786.013 332.307 786.453 331.44C786.906 330.573 787.513 329.907 788.273 329.44C789.046 328.973 789.906 328.74 790.853 328.74C791.679 328.74 792.399 328.907 793.013 329.24C793.639 329.573 794.139 329.993 794.513 330.5V328.92H797.333V340H794.513V338.38C794.153 338.9 793.653 339.333 793.013 339.68C792.386 340.013 791.659 340.18 790.833 340.18C789.899 340.18 789.046 339.94 788.273 339.46C787.513 338.98 786.906 338.307 786.453 337.44C786.013 336.56 785.793 335.553 785.793 334.42ZM794.513 334.46C794.513 333.78 794.379 333.2 794.113 332.72C793.846 332.227 793.486 331.853 793.033 331.6C792.579 331.333 792.093 331.2 791.573 331.2C791.053 331.2 790.573 331.327 790.133 331.58C789.693 331.833 789.333 332.207 789.053 332.7C788.786 333.18 788.653 333.753 788.653 334.42C788.653 335.087 788.786 335.673 789.053 336.18C789.333 336.673 789.693 337.053 790.133 337.32C790.586 337.587 791.066 337.72 791.573 337.72C792.093 337.72 792.579 337.593 793.033 337.34C793.486 337.073 793.846 336.7 794.113 336.22C794.379 335.727 794.513 335.14 794.513 334.46ZM810.668 328.92L803.808 345.24H800.828L803.228 339.72L798.788 328.92H801.928L804.788 336.66L807.688 328.92H810.668ZM818.363 327.6C817.869 327.6 817.456 327.447 817.123 327.14C816.803 326.82 816.643 326.427 816.643 325.96C816.643 325.493 816.803 325.107 817.123 324.8C817.456 324.48 817.869 324.32 818.363 324.32C818.856 324.32 819.263 324.48 819.583 324.8C819.916 325.107 820.083 325.493 820.083 325.96C820.083 326.427 819.916 326.82 819.583 327.14C819.263 327.447 818.856 327.6 818.363 327.6ZM819.743 328.92V340H816.943V328.92H819.743ZM828.649 328.76C829.969 328.76 831.036 329.18 831.849 330.02C832.662 330.847 833.069 332.007 833.069 333.5V340H830.269V333.88C830.269 333 830.049 332.327 829.609 331.86C829.169 331.38 828.569 331.14 827.809 331.14C827.036 331.14 826.422 331.38 825.969 331.86C825.529 332.327 825.309 333 825.309 333.88V340H822.509V328.92H825.309V330.3C825.682 329.82 826.156 329.447 826.729 329.18C827.316 328.9 827.956 328.76 828.649 328.76ZM846.032 334.22C846.032 334.62 846.005 334.98 845.952 335.3H837.852C837.918 336.1 838.198 336.727 838.692 337.18C839.185 337.633 839.792 337.86 840.512 337.86C841.552 337.86 842.292 337.413 842.732 336.52H845.752C845.432 337.587 844.818 338.467 843.912 339.16C843.005 339.84 841.892 340.18 840.572 340.18C839.505 340.18 838.545 339.947 837.692 339.48C836.852 339 836.192 338.327 835.712 337.46C835.245 336.593 835.012 335.593 835.012 334.46C835.012 333.313 835.245 332.307 835.712 331.44C836.178 330.573 836.832 329.907 837.672 329.44C838.512 328.973 839.478 328.74 840.572 328.74C841.625 328.74 842.565 328.967 843.392 329.42C844.232 329.873 844.878 330.52 845.332 331.36C845.798 332.187 846.032 333.14 846.032 334.22ZM843.132 333.42C843.118 332.7 842.858 332.127 842.352 331.7C841.845 331.26 841.225 331.04 840.492 331.04C839.798 331.04 839.212 331.253 838.732 331.68C838.265 332.093 837.978 332.673 837.872 333.42H843.132ZM842.712 326L838.112 328.1V326.1L842.712 323.72V326ZM852.415 328.74C853.242 328.74 853.969 328.907 854.595 329.24C855.222 329.56 855.715 329.98 856.075 330.5V328.92H858.895V340.08C858.895 341.107 858.689 342.02 858.275 342.82C857.862 343.633 857.242 344.273 856.415 344.74C855.589 345.22 854.589 345.46 853.415 345.46C851.842 345.46 850.549 345.093 849.535 344.36C848.535 343.627 847.969 342.627 847.835 341.36H850.615C850.762 341.867 851.075 342.267 851.555 342.56C852.049 342.867 852.642 343.02 853.335 343.02C854.149 343.02 854.809 342.773 855.315 342.28C855.822 341.8 856.075 341.067 856.075 340.08V338.36C855.715 338.88 855.215 339.313 854.575 339.66C853.949 340.007 853.229 340.18 852.415 340.18C851.482 340.18 850.629 339.94 849.855 339.46C849.082 338.98 848.469 338.307 848.015 337.44C847.575 336.56 847.355 335.553 847.355 334.42C847.355 333.3 847.575 332.307 848.015 331.44C848.469 330.573 849.075 329.907 849.835 329.44C850.609 328.973 851.469 328.74 852.415 328.74ZM856.075 334.46C856.075 333.78 855.942 333.2 855.675 332.72C855.409 332.227 855.049 331.853 854.595 331.6C854.142 331.333 853.655 331.2 853.135 331.2C852.615 331.2 852.135 331.327 851.695 331.58C851.255 331.833 850.895 332.207 850.615 332.7C850.349 333.18 850.215 333.753 850.215 334.42C850.215 335.087 850.349 335.673 850.615 336.18C850.895 336.673 851.255 337.053 851.695 337.32C852.149 337.587 852.629 337.72 853.135 337.72C853.655 337.72 854.142 337.593 854.595 337.34C855.049 337.073 855.409 336.7 855.675 336.22C855.942 335.727 856.075 335.14 856.075 334.46ZM860.91 334.42C860.91 333.3 861.13 332.307 861.57 331.44C862.023 330.573 862.63 329.907 863.39 329.44C864.163 328.973 865.023 328.74 865.97 328.74C866.797 328.74 867.517 328.907 868.13 329.24C868.757 329.573 869.257 329.993 869.63 330.5V328.92H872.45V340H869.63V338.38C869.27 338.9 868.77 339.333 868.13 339.68C867.503 340.013 866.777 340.18 865.95 340.18C865.017 340.18 864.163 339.94 863.39 339.46C862.63 338.98 862.023 338.307 861.57 337.44C861.13 336.56 860.91 335.553 860.91 334.42ZM869.63 334.46C869.63 333.78 869.497 333.2 869.23 332.72C868.963 332.227 868.603 331.853 868.15 331.6C867.697 331.333 867.21 331.2 866.69 331.2C866.17 331.2 865.69 331.327 865.25 331.58C864.81 331.833 864.45 332.207 864.17 332.7C863.903 333.18 863.77 333.753 863.77 334.42C863.77 335.087 863.903 335.673 864.17 336.18C864.45 336.673 864.81 337.053 865.25 337.32C865.703 337.587 866.183 337.72 866.69 337.72C867.21 337.72 867.697 337.593 868.15 337.34C868.603 337.073 868.963 336.7 869.23 336.22C869.497 335.727 869.63 335.14 869.63 334.46ZM877.985 325.2V340H875.185V325.2H877.985ZM891.051 334.22C891.051 334.62 891.024 334.98 890.971 335.3H882.871C882.938 336.1 883.218 336.727 883.711 337.18C884.204 337.633 884.811 337.86 885.531 337.86C886.571 337.86 887.311 337.413 887.751 336.52H890.771C890.451 337.587 889.838 338.467 888.931 339.16C888.024 339.84 886.911 340.18 885.591 340.18C884.524 340.18 883.564 339.947 882.711 339.48C881.871 339 881.211 338.327 880.731 337.46C880.264 336.593 880.031 335.593 880.031 334.46C880.031 333.313 880.264 332.307 880.731 331.44C881.198 330.573 881.851 329.907 882.691 329.44C883.531 328.973 884.498 328.74 885.591 328.74C886.644 328.74 887.584 328.967 888.411 329.42C889.251 329.873 889.898 330.52 890.351 331.36C890.818 332.187 891.051 333.14 891.051 334.22ZM888.151 333.42C888.138 332.7 887.878 332.127 887.371 331.7C886.864 331.26 886.244 331.04 885.511 331.04C884.818 331.04 884.231 331.253 883.751 331.68C883.284 332.093 882.998 332.673 882.891 333.42H888.151ZM887.731 326L883.131 328.1V326.1L887.731 323.72V326ZM901.48 325.8L901.16 335.46H898.8L898.46 325.8H901.48ZM900.04 340.14C899.534 340.14 899.114 339.987 898.78 339.68C898.46 339.36 898.3 338.967 898.3 338.5C898.3 338.033 898.46 337.647 898.78 337.34C899.114 337.02 899.534 336.86 900.04 336.86C900.534 336.86 900.94 337.02 901.26 337.34C901.58 337.647 901.74 338.033 901.74 338.5C901.74 338.967 901.58 339.36 901.26 339.68C900.94 339.987 900.534 340.14 900.04 340.14Z" fill="white"/>
<g clip-path="url(#clip1_476_46)">
<path d="M587.746 57.9086V90.4187H560.163C557.964 90.4182 555.786 90.8509 553.754 91.6922C551.723 92.5335 549.877 93.7669 548.322 95.3218C546.767 96.8767 545.534 98.7227 544.692 100.754C543.851 102.786 543.418 104.964 543.419 107.163V134.746H510.909C509.341 134.745 507.838 134.122 506.73 133.013C505.622 131.904 505 130.401 505 128.834V57.916C504.999 57.1395 505.151 56.3703 505.448 55.6526C505.744 54.9349 506.179 54.2827 506.728 53.7332C507.277 53.1838 507.928 52.7479 508.646 52.4505C509.363 52.1531 510.132 52 510.909 52H581.826C582.603 51.999 583.372 52.1511 584.09 52.4475C584.808 52.744 585.461 53.179 586.01 53.7277C586.56 54.2764 586.996 54.9281 587.294 55.6454C587.592 56.3628 587.745 57.1318 587.746 57.9086Z" fill="#FAFAFF"/>
<path d="M631.091 101.254H560.162C556.899 101.254 554.254 103.899 554.254 107.163V178.091C554.254 181.355 556.899 184 560.162 184H631.091C634.354 184 637 181.355 637 178.091V107.163C637 103.899 634.354 101.254 631.091 101.254Z" fill="#FAFAFF"/>
<path d="M637 57.9086V91.5011C635.11 90.7898 633.107 90.4269 631.088 90.4299H598.581V57.9086C598.583 55.8903 598.219 53.8884 597.506 52H631.099C632.664 52.003 634.165 52.6267 635.271 53.7343C636.377 54.8419 636.999 56.3431 637 57.9086Z" fill="#FAFAFF"/>
<path d="M544.49 184H510.897C509.332 183.996 507.832 183.371 506.726 182.263C505.621 181.155 505 179.653 505 178.088V144.495C506.888 145.208 508.89 145.572 510.909 145.57H543.419V178.076C543.414 180.1 543.777 182.107 544.49 184Z" fill="#FAFAFF"/>
</g>
<path d="M144.745 288.905V387.42H61.1596C54.496 387.419 47.8974 388.73 41.7407 391.279C35.5841 393.829 29.99 397.566 25.2781 402.278C20.5662 406.99 16.8289 412.584 14.2795 418.741C11.7301 424.897 10.4187 431.496 10.4202 438.16V521.745H-88.0953C-92.8449 521.742 -97.399 519.853 -100.757 516.494C-104.114 513.134 -106 508.579 -106 503.829V288.927C-106.003 286.574 -105.542 284.243 -104.644 282.069C-103.745 279.894 -102.427 277.917 -100.764 276.252C-99.1009 274.587 -97.1261 273.266 -94.9523 272.365C-92.7786 271.464 -90.4485 271 -88.0953 271H126.806C129.16 270.997 131.491 271.458 133.667 272.356C135.843 273.255 137.82 274.573 139.486 276.235C141.152 277.898 142.473 279.873 143.376 282.047C144.278 284.221 144.744 286.551 144.745 288.905Z" fill="#FAFAFF" fill-opacity="0.25"/>
<path d="M276.095 420.255H61.1596C51.2711 420.255 43.2549 428.271 43.2549 438.16V653.095C43.2549 662.984 51.2711 671 61.1596 671H276.095C285.984 671 294 662.984 294 653.095V438.16C294 428.271 285.984 420.255 276.095 420.255Z" fill="#FAFAFF" fill-opacity="0.25"/>
<path d="M294 288.905V390.7C288.273 388.545 282.203 387.445 276.084 387.454H177.58V288.905C177.585 282.789 176.481 276.722 174.322 271H276.118C280.862 271.009 285.408 272.899 288.76 276.255C292.113 279.612 293.997 284.161 294 288.905Z" fill="#FAFAFF" fill-opacity="0.25"/>
<path d="M1104.75 -159.095V-60.5798H1021.16C1014.5 -60.5813 1007.9 -59.2699 1001.74 -56.7205C995.584 -54.1711 989.99 -50.4338 985.278 -45.7219C980.566 -41.01 976.829 -35.4159 974.279 -29.2593C971.73 -23.1026 970.419 -16.504 970.42 -9.84037V73.7451H871.905C867.155 73.7421 862.601 71.8532 859.243 68.4936C855.886 65.1341 854 60.5788 854 55.8291V-159.073C853.997 -161.426 854.458 -163.757 855.356 -165.931C856.255 -168.106 857.573 -170.083 859.236 -171.748C860.899 -173.413 862.874 -174.734 865.048 -175.635C867.221 -176.536 869.552 -177 871.905 -177H1086.81C1089.16 -177.003 1091.49 -176.542 1093.67 -175.644C1095.84 -174.745 1097.82 -173.427 1099.49 -171.765C1101.15 -170.102 1102.47 -168.127 1103.38 -165.953C1104.28 -163.779 1104.74 -161.449 1104.75 -159.095Z" fill="#FAFAFF" fill-opacity="0.25"/>
<path d="M1236.1 -27.7451H1021.16C1011.27 -27.7451 1003.25 -19.7289 1003.25 -9.84042V205.095C1003.25 214.984 1011.27 223 1021.16 223H1236.1C1245.98 223 1254 214.984 1254 205.095V-9.84042C1254 -19.7289 1245.98 -27.7451 1236.1 -27.7451Z" fill="#FAFAFF" fill-opacity="0.25"/>
<path d="M973.666 223H871.871C867.127 222.988 862.582 221.095 859.231 217.736C855.881 214.378 854 209.828 854 205.084V103.288C859.722 105.447 865.789 106.551 871.905 106.546H970.42V205.05C970.407 211.18 971.507 217.262 973.666 223Z" fill="#FAFAFF" fill-opacity="0.25"/>
</g>
<defs>
<clipPath id="clip0_476_46">
<rect width="1143" height="458" fill="white"/>
</clipPath>
<clipPath id="clip1_476_46">
<rect width="132" height="132" fill="white" transform="translate(505 52)"/>
</clipPath>
</defs>
</svg>
